<?xml version="1.0" encoding="UTF-8"?>
<!DOCTYPE svg PUBLIC "-//W3C//DTD SVG 1.1//EN" "http://www.w3.org/Graphics/SVG/1.1/DTD/svg11.dtd">
<svg xmlns="http://www.w3.org/2000/svg" version="1.1" width="500px" height="500px" style="shape-rendering:geometricPrecision; text-rendering:geometricPrecision; image-rendering:optimizeQuality; fill-rule:evenodd; clip-rule:evenodd" xmlns:xlink="http://www.w3.org/1999/xlink">
<g><path style="opacity:1" fill="#050505" d="M 288.5,315.5 C 263.522,317.491 238.189,318.157 212.5,317.5C 203.167,291.167 193.833,264.833 184.5,238.5C 184.289,236.576 183.623,236.243 182.5,237.5C 165.646,286.896 147.313,335.73 127.5,384C 91.5,384.667 55.5,384.667 19.5,384C 18.5243,381.853 18.691,379.686 20,377.5C 27,359.167 34,340.833 41,322.5C 51.4234,321.679 61.9234,321.179 72.5,321C 74.259,319.992 75.4257,318.492 76,316.5C 101.642,249.238 127.475,182.072 153.5,115C 173.175,114.167 192.842,114.334 212.5,115.5C 238.409,181.978 263.742,248.645 288.5,315.5 Z"/></g>
<g><path style="opacity:1" fill="#070707" d="M 269.5,114.5 C 295.074,114.172 320.574,114.505 346,115.5C 372,183.5 398,251.5 424,319.5C 424.75,320.126 425.584,320.626 426.5,321C 437.077,321.179 447.577,321.679 458,322.5C 465.333,341.833 472.667,361.167 480,380.5C 480.684,381.784 480.517,382.951 479.5,384C 443.559,384.384 407.559,384.384 371.5,384C 336.64,295.267 302.306,206.267 268.5,117C 268.743,116.098 269.077,115.265 269.5,114.5 Z"/></g>
</svg>
